# xmcd CD database file
#
# Track frame offsets:
#	150
#	21852
#	45400
#	63792
#	79160
#	100317
#	120167
#	135345
#	156965
#	175080
#
# Disc length: 2522 seconds
#
# Revision: 2
# Processed by: cddbd v1.4PL0 Copyright (c) Steve Scherf et al.
# Submitted via: CDex 1.50
#
DISCID=6e09d80a
DTITLE=K.T. Oslin - This Woman
DYEAR=1988
DGENRE=Country
TTITLE0=This Woman
TTITLE1=Money
TTITLE2=Round The Clock Lovin'
TTITLE3=Where Is A Woman To Go
TTITLE4=Hold Me
TTITLE5=Hey Bobby
TTITLE6=She Don't Talk Like Us No More
TTITLE7=Jealous
TTITLE8=Didn't Expect It To Go Down This Way
TTITLE9=Truly Blue
EXTD=YEAR: 1988
EXTT0=
EXTT1=
EXTT2=
EXTT3=
EXTT4=
EXTT5=
EXTT6=
EXTT7=
EXTT8=
EXTT9=
PLAYORDER=
